<svg width="433" height="35" viewBox="0 0 433 35" fill="none" xmlns="http://www.w3.org/2000/svg">
<path d="M0 25.6352V8.44628C0 8.19226 0.169349 7.93823 0.338698 7.85356H0.423372L17.0196 0.0635059C17.2736 -0.0211686 17.5276 -0.0211686 17.697 0.0635059L34.2932 7.85356H34.3778C34.5472 7.93823 34.7165 8.19226 34.7165 8.44628V25.6352C34.7165 25.8892 34.5472 26.1432 34.2932 26.3126L17.7816 34.1026C17.6123 34.1873 17.4429 34.1873 17.2736 34.1873H17.1889H17.1042L0.423372 26.3126C0.169349 26.1432 0 25.8892 0 25.6352Z" fill="#E9D4C6"/>
<path d="M0 25.6352V8.44628C0 8.19226 0.169349 7.93823 0.338698 7.85356H0.423372L17.0196 0.0635059C17.2736 -0.0211686 17.5276 -0.0211686 17.697 0.0635059L34.2932 7.85356H34.3778C34.5472 7.93823 34.7165 8.19226 34.7165 8.44628V25.6352C34.7165 25.8892 34.5472 26.1432 34.2932 26.3126L17.7816 34.1026C17.6123 34.1873 17.4429 34.1873 17.2736 34.1873H17.1889H17.1042L0.423372 26.3126C0.169349 26.1432 0 25.8892 0 25.6352ZM17.3583 1.50297L2.54023 8.44628L7.282 10.6478L22.1 3.70451L17.3583 1.50297ZM17.3583 15.3896L32.1763 8.44628L27.1805 6.07539L12.3625 13.0187L17.3583 15.3896ZM10.5843 12.2566L25.4023 5.31332L23.8782 4.55125L9.06017 11.4946L10.5843 12.2566ZM9.82224 13.5267L8.04408 12.68V19.6233L9.82224 20.5547V13.5267ZM33.1077 9.63172L18.1203 16.6597V32.2398L33.1077 25.2118V9.63172ZM1.52414 25.2118L16.5962 32.1551V16.6597L11.4311 14.2041V21.6555C11.4311 22.0789 11.0924 22.4176 10.669 22.4176C10.5843 22.4176 10.415 22.4176 10.3303 22.3329L6.94331 20.6394C6.68928 20.4701 6.51993 20.3007 6.51993 19.962V11.8333L1.60881 9.54705V25.2118H1.52414Z" fill="black"/>
<path d="M22.0157 23.6031C22.1004 23.0104 22.4391 22.5023 23.0318 22.2483C23.1165 22.1636 23.2858 22.1636 23.3705 22.0789C23.4552 21.9943 23.4552 21.8249 23.4552 21.6556C23.4552 21.3169 23.7092 20.9782 23.8785 20.6395C24.6406 19.5387 25.4027 18.3533 26.5034 17.6759C27.1808 17.2525 27.9429 16.9985 28.705 16.8291C30.6525 16.3211 32.6 16.1517 34.6322 16.3211C36.5797 16.5751 38.5272 17.2525 40.0514 18.5226C40.6441 19.0307 41.2368 19.6234 41.4908 20.3854C41.6602 21.0628 41.6602 21.9096 42.2529 22.333C42.5069 22.5023 42.8456 22.587 43.0996 22.841C43.6924 23.2644 43.6924 24.2805 43.3537 24.9579C43.269 25.1272 43.1843 25.2966 43.1843 25.3812C43.0996 25.8893 43.6077 26.228 43.6077 26.736C43.6077 27.3288 42.8456 27.6675 42.4222 28.0908C42.0836 28.4295 41.9142 28.8529 41.8295 29.3609C41.5755 30.2077 41.2368 31.1391 40.7288 31.8165C40.2207 32.5786 39.4586 33.256 38.6119 33.4253C38.1038 33.51 37.6805 33.51 37.1724 33.5947C36.9184 33.6793 36.6644 33.764 36.3257 33.764C35.8176 33.8487 35.3096 33.8487 34.8015 33.8487C33.4468 33.8487 32.0073 33.764 30.6525 33.764C29.8058 33.764 28.959 33.764 28.1969 33.51C27.1808 33.1713 26.3341 32.4939 25.572 31.7318C25.064 31.2238 24.6406 30.6311 24.3866 29.869C24.2172 29.1916 24.1326 28.3449 23.5398 27.9215C23.2858 27.7521 23.0318 27.7521 22.8624 27.5828C22.5237 27.3288 22.3544 26.8207 22.3544 26.3973C22.3544 25.8893 22.6931 25.4659 22.6084 24.9579C22.4391 24.5345 21.931 24.1958 22.0157 23.6031Z" fill="#9EBFFF"/>
<path d="M22.7775 21.8247C21.9308 22.0787 21.2534 22.9255 21.2534 23.8569C21.2534 24.4496 21.5074 24.873 21.8461 25.2964C21.5074 25.6351 21.2534 26.1431 21.2534 26.7358C21.2534 27.6673 21.9308 28.514 22.7775 28.768C23.4549 32.155 26.4185 34.6106 29.8902 34.6106H35.5634C39.035 34.6106 41.9986 32.155 42.676 28.768C43.5228 28.514 44.2002 27.6673 44.2002 26.7358C44.2002 26.1431 43.9461 25.7197 43.6075 25.2964C43.9461 24.9577 44.2002 24.4496 44.2002 23.8569C44.2002 22.9255 43.5228 22.0787 42.676 21.8247C41.9986 18.4377 39.035 15.9822 35.5634 15.9822H29.9749C26.4185 15.9822 23.4549 18.4377 22.7775 21.8247ZM35.5634 33.0864H29.9749C27.35 33.0864 25.0637 31.3083 24.3863 28.768H41.2366C40.4745 31.3083 38.1883 33.0864 35.5634 33.0864ZM42.7607 26.6512C42.7607 27.0745 42.422 27.3286 42.0833 27.3286H23.4549C23.0316 27.3286 22.7775 26.9899 22.7775 26.6512C22.7775 26.3125 23.1162 25.9738 23.4549 25.9738H41.9986C42.422 25.9738 42.7607 26.3125 42.7607 26.6512ZM40.3051 23.0948H41.9986C42.422 23.0948 42.676 23.4335 42.676 23.7722C42.676 24.1109 42.422 24.5343 41.9986 24.5343H23.4549C23.0316 24.5343 22.7775 24.1956 22.7775 23.8569C22.7775 23.5182 23.1162 23.1795 23.4549 23.1795H25.1484L25.7411 22.5868C25.8258 22.5021 25.9952 22.4174 26.0798 22.4174H26.5032C26.6726 22.4174 26.7572 22.5021 26.8419 22.5868C27.1806 22.9255 27.6886 23.1795 28.1967 23.1795H28.6201C29.1281 23.1795 29.6362 23.0102 29.9749 22.5868C30.0595 22.5021 30.2289 22.4174 30.3136 22.4174H30.7369C30.9063 22.4174 30.991 22.5021 31.0756 22.5868C31.4143 22.9255 31.9224 23.1795 32.4304 23.1795H32.8538C33.3618 23.1795 33.8699 23.0102 34.2086 22.5868C34.2933 22.5021 34.4626 22.4174 34.5473 22.4174H34.9707C35.14 22.4174 35.2247 22.5021 35.3094 22.5868C35.6481 22.9255 36.1561 23.1795 36.6641 23.1795H37.2569C37.7649 23.1795 38.273 23.0102 38.6117 22.5868C38.6963 22.5021 38.8657 22.4174 38.9504 22.4174H39.3737C39.5431 22.4174 39.6278 22.5021 39.7124 22.5868L40.3051 23.0948ZM35.5634 17.4216C38.1883 17.4216 40.4745 19.1998 41.1519 21.74H40.8979L40.7285 21.5707C40.3898 21.232 39.8818 20.978 39.3737 20.978H38.9504C38.4423 20.978 37.9343 21.1473 37.5956 21.5707C37.5109 21.6554 37.3415 21.74 37.2569 21.74H36.8335C36.6641 21.74 36.5795 21.6554 36.4948 21.5707C36.1561 21.232 35.648 20.978 35.14 20.978H34.7166C34.2086 20.978 33.7005 21.1473 33.3618 21.5707C33.2772 21.6554 33.1078 21.74 33.0231 21.74H32.5998C32.4304 21.74 32.3457 21.6554 32.2611 21.5707C31.9224 21.232 31.4143 20.978 30.9063 20.978H30.4829C29.9749 20.978 29.4668 21.1473 29.1281 21.5707C29.0434 21.6554 28.8741 21.74 28.7894 21.74H28.366C28.1967 21.74 28.112 21.6554 28.0273 21.5707C27.6886 21.232 27.1806 20.978 26.6726 20.978H26.2492C25.7411 20.978 25.2331 21.1473 24.8944 21.5707L24.5557 21.6554H24.3017C24.9791 19.1998 27.2653 17.337 29.8902 17.337H35.5634V17.4216Z" fill="black"/>
<path d="M60.1082 24.216C58.3682 24.216 56.9582 23.628 55.8782 22.452C54.8102 21.276 54.2762 19.794 54.2762 18.006C54.2762 16.218 54.8102 14.736 55.8782 13.56C56.9582 12.384 58.3682 11.796 60.1082 11.796C61.8362 11.796 63.2402 12.384 64.3202 13.56C65.4002 14.736 65.9402 16.218 65.9402 18.006C65.9402 19.794 65.4002 21.276 64.3202 22.452C63.2402 23.628 61.8362 24.216 60.1082 24.216ZM60.1082 23.28C61.5242 23.28 62.6702 22.788 63.5462 21.804C64.4222 20.808 64.8602 19.542 64.8602 18.006C64.8602 16.458 64.4222 15.192 63.5462 14.208C62.6822 13.224 61.5362 12.732 60.1082 12.732C58.6682 12.732 57.5162 13.224 56.6522 14.208C55.7882 15.192 55.3562 16.458 55.3562 18.006C55.3562 19.542 55.7882 20.808 56.6522 21.804C57.5162 22.788 58.6682 23.28 60.1082 23.28ZM78.5163 24H77.4723V12.93H69.8583V24H68.8323V11.994H78.5163V24ZM85.9525 24H84.9085V12.93H80.9845V11.994H89.8765V12.93H85.9525V24ZM97.2234 24.216C95.4834 24.216 94.0734 23.628 92.9934 22.452C91.9254 21.276 91.3914 19.794 91.3914 18.006C91.3914 16.218 91.9254 14.736 92.9934 13.56C94.0734 12.384 95.4834 11.796 97.2234 11.796C98.9514 11.796 100.355 12.384 101.435 13.56C102.515 14.736 103.055 16.218 103.055 18.006C103.055 19.794 102.515 21.276 101.435 22.452C100.355 23.628 98.9514 24.216 97.2234 24.216ZM97.2234 23.28C98.6394 23.28 99.7854 22.788 100.661 21.804C101.537 20.808 101.975 19.542 101.975 18.006C101.975 16.458 101.537 15.192 100.661 14.208C99.7974 13.224 98.6514 12.732 97.2234 12.732C95.7834 12.732 94.6314 13.224 93.7674 14.208C92.9034 15.192 92.4714 16.458 92.4714 18.006C92.4714 19.542 92.9034 20.808 93.7674 21.804C94.6314 22.788 95.7834 23.28 97.2234 23.28ZM110.987 24H105.947V11.994H110.879C111.887 11.994 112.691 12.27 113.291 12.822C113.891 13.374 114.191 14.118 114.191 15.054C114.191 15.774 113.981 16.386 113.561 16.89C113.153 17.382 112.661 17.688 112.085 17.808C112.721 17.904 113.267 18.246 113.723 18.834C114.191 19.41 114.425 20.052 114.425 20.76C114.425 21.756 114.119 22.548 113.507 23.136C112.895 23.712 112.055 24 110.987 24ZM110.753 17.376C111.497 17.376 112.073 17.172 112.481 16.764C112.901 16.344 113.111 15.81 113.111 15.162C113.111 14.526 112.901 13.998 112.481 13.578C112.073 13.146 111.497 12.93 110.753 12.93H106.973V17.376H110.753ZM110.825 23.064C111.617 23.064 112.235 22.854 112.679 22.434C113.123 22.002 113.345 21.42 113.345 20.688C113.345 20.028 113.123 19.47 112.679 19.014C112.235 18.546 111.617 18.312 110.825 18.312H106.973V23.064H110.825ZM117.364 11.994H118.39V16.98H121.864C122.968 16.98 123.844 17.322 124.492 18.006C125.152 18.678 125.482 19.506 125.482 20.49C125.482 21.474 125.158 22.308 124.51 22.992C123.862 23.664 122.98 24 121.864 24H117.364V11.994ZM121.756 17.916H118.39V23.064H121.756C122.548 23.064 123.184 22.824 123.664 22.344C124.156 21.864 124.402 21.246 124.402 20.49C124.402 19.734 124.156 19.116 123.664 18.636C123.184 18.156 122.548 17.916 121.756 17.916ZM127.948 24H126.922V11.994H127.948V24ZM138.908 24H131.294V11.994H138.908V12.93H132.32V17.376H138.782V18.312H132.32V23.064H138.908V24ZM156.517 24H155.473V12.93H147.859V24H146.833V11.994H156.517V24ZM165.231 24.216C163.491 24.216 162.081 23.628 161.001 22.452C159.933 21.276 159.399 19.794 159.399 18.006C159.399 16.218 159.933 14.736 161.001 13.56C162.081 12.384 163.491 11.796 165.231 11.796C166.959 11.796 168.363 12.384 169.443 13.56C170.523 14.736 171.063 16.218 171.063 18.006C171.063 19.794 170.523 21.276 169.443 22.452C168.363 23.628 166.959 24.216 165.231 24.216ZM165.231 23.28C166.647 23.28 167.793 22.788 168.669 21.804C169.545 20.808 169.983 19.542 169.983 18.006C169.983 16.458 169.545 15.192 168.669 14.208C167.805 13.224 166.659 12.732 165.231 12.732C163.791 12.732 162.639 13.224 161.775 14.208C160.911 15.192 160.479 16.458 160.479 18.006C160.479 19.542 160.911 20.808 161.775 21.804C162.639 22.788 163.791 23.28 165.231 23.28ZM179.589 24.216C177.861 24.216 176.415 23.64 175.251 22.488C174.087 21.324 173.505 19.83 173.505 18.006C173.505 16.182 174.087 14.694 175.251 13.542C176.415 12.378 177.861 11.796 179.589 11.796C181.365 11.796 182.823 12.504 183.963 13.92L183.099 14.478C182.715 13.95 182.211 13.53 181.587 13.218C180.963 12.894 180.297 12.732 179.589 12.732C178.161 12.732 176.967 13.224 176.007 14.208C175.059 15.192 174.585 16.458 174.585 18.006C174.585 19.542 175.059 20.808 176.007 21.804C176.967 22.788 178.161 23.28 179.589 23.28C180.297 23.28 180.963 23.124 181.587 22.812C182.211 22.488 182.715 22.062 183.099 21.534L183.963 22.074C182.811 23.502 181.353 24.216 179.589 24.216ZM190.513 24H189.469V12.93H185.545V11.994H194.437V12.93H190.513V24ZM205.563 24H204.375L203.187 21.048H196.833L195.645 24H194.457L199.371 11.994H200.649L205.563 24ZM202.845 20.112L200.001 13.092L197.175 20.112H202.845ZM212.735 24H207.695V11.994H212.627C213.635 11.994 214.439 12.27 215.039 12.822C215.639 13.374 215.939 14.118 215.939 15.054C215.939 15.774 215.729 16.386 215.309 16.89C214.901 17.382 214.409 17.688 213.833 17.808C214.469 17.904 215.015 18.246 215.471 18.834C215.939 19.41 216.173 20.052 216.173 20.76C216.173 21.756 215.867 22.548 215.255 23.136C214.643 23.712 213.803 24 212.735 24ZM212.501 17.376C213.245 17.376 213.821 17.172 214.229 16.764C214.649 16.344 214.859 15.81 214.859 15.162C214.859 14.526 214.649 13.998 214.229 13.578C213.821 13.146 213.245 12.93 212.501 12.93H208.721V17.376H212.501ZM212.573 23.064C213.365 23.064 213.983 22.854 214.427 22.434C214.871 22.002 215.093 21.42 215.093 20.688C215.093 20.028 214.871 19.47 214.427 19.014C213.983 18.546 213.365 18.312 212.573 18.312H208.721V23.064H212.573ZM227.734 24H226.42L221.47 18.348L220.138 19.806V24H219.112V11.994H220.138V18.564L225.934 11.994H227.248L222.136 17.718L227.734 24ZM231.027 24H230.019V11.994H231.045V22.164L238.569 11.994H239.613V24H238.587V13.686L231.027 24ZM253.365 24.216C251.625 24.216 250.215 23.628 249.135 22.452C248.067 21.276 247.533 19.794 247.533 18.006C247.533 16.218 248.067 14.736 249.135 13.56C250.215 12.384 251.625 11.796 253.365 11.796C255.093 11.796 256.497 12.384 257.577 13.56C258.657 14.736 259.197 16.218 259.197 18.006C259.197 19.794 258.657 21.276 257.577 22.452C256.497 23.628 255.093 24.216 253.365 24.216ZM253.365 23.28C254.781 23.28 255.927 22.788 256.803 21.804C257.679 20.808 258.117 19.542 258.117 18.006C258.117 16.458 257.679 15.192 256.803 14.208C255.939 13.224 254.793 12.732 253.365 12.732C251.925 12.732 250.773 13.224 249.909 14.208C249.045 15.192 248.613 16.458 248.613 18.006C248.613 19.542 249.045 20.808 249.909 21.804C250.773 22.788 251.925 23.28 253.365 23.28ZM265.666 24H264.622V12.93H260.698V11.994H269.59V12.93H265.666V24ZM286.784 24H285.74V12.93H278.126V24H277.1V11.994H286.784V24ZM291.142 24H290.116V11.994H294.616C295.732 11.994 296.614 12.336 297.262 13.02C297.91 13.692 298.234 14.52 298.234 15.504C298.234 16.488 297.904 17.322 297.244 18.006C296.596 18.678 295.72 19.014 294.616 19.014H291.142V24ZM294.508 18.078C295.3 18.078 295.936 17.838 296.416 17.358C296.908 16.878 297.154 16.26 297.154 15.504C297.154 14.748 296.908 14.13 296.416 13.65C295.936 13.17 295.3 12.93 294.508 12.93H291.142V18.078H294.508ZM306.141 24.216C304.401 24.216 302.991 23.628 301.911 22.452C300.843 21.276 300.309 19.794 300.309 18.006C300.309 16.218 300.843 14.736 301.911 13.56C302.991 12.384 304.401 11.796 306.141 11.796C307.869 11.796 309.273 12.384 310.353 13.56C311.433 14.736 311.973 16.218 311.973 18.006C311.973 19.794 311.433 21.276 310.353 22.452C309.273 23.628 307.869 24.216 306.141 24.216ZM306.141 23.28C307.557 23.28 308.703 22.788 309.579 21.804C310.455 20.808 310.893 19.542 310.893 18.006C310.893 16.458 310.455 15.192 309.579 14.208C308.715 13.224 307.569 12.732 306.141 12.732C304.701 12.732 303.549 13.224 302.685 14.208C301.821 15.192 301.389 16.458 301.389 18.006C301.389 19.542 301.821 20.808 302.685 21.804C303.549 22.788 304.701 23.28 306.141 23.28ZM315.874 24H314.866V11.994H315.892V22.164L323.416 11.994H324.46V24H323.434V13.686L315.874 24ZM331.25 24.216C330.266 24.216 329.39 24.03 328.622 23.658C327.866 23.274 327.29 22.794 326.894 22.218L327.596 21.588C327.956 22.092 328.454 22.5 329.09 22.812C329.738 23.124 330.458 23.28 331.25 23.28C332.246 23.28 333.032 23.052 333.608 22.596C334.196 22.14 334.49 21.516 334.49 20.724C334.49 19.908 334.19 19.302 333.59 18.906C332.99 18.498 332.198 18.294 331.214 18.294H328.73V17.358H331.214C332.102 17.358 332.834 17.166 333.41 16.782C333.998 16.398 334.292 15.828 334.292 15.072C334.292 14.352 333.998 13.788 333.41 13.38C332.822 12.96 332.096 12.75 331.232 12.75C329.888 12.75 328.736 13.26 327.776 14.28L327.146 13.632C327.602 13.092 328.184 12.654 328.892 12.318C329.612 11.982 330.41 11.814 331.286 11.814C332.426 11.814 333.392 12.102 334.184 12.678C334.976 13.242 335.372 14.01 335.372 14.982C335.372 15.546 335.222 16.044 334.922 16.476C334.622 16.908 334.292 17.22 333.932 17.412C333.572 17.592 333.194 17.718 332.798 17.79C333.446 17.862 334.064 18.156 334.652 18.672C335.252 19.188 335.552 19.89 335.552 20.778C335.552 21.786 335.162 22.614 334.382 23.262C333.602 23.898 332.558 24.216 331.25 24.216ZM343.53 24H338.49V11.994H343.422C344.43 11.994 345.234 12.27 345.834 12.822C346.434 13.374 346.734 14.118 346.734 15.054C346.734 15.774 346.524 16.386 346.104 16.89C345.696 17.382 345.204 17.688 344.628 17.808C345.264 17.904 345.81 18.246 346.266 18.834C346.734 19.41 346.968 20.052 346.968 20.76C346.968 21.756 346.662 22.548 346.05 23.136C345.438 23.712 344.598 24 343.53 24ZM343.296 17.376C344.04 17.376 344.616 17.172 345.024 16.764C345.444 16.344 345.654 15.81 345.654 15.162C345.654 14.526 345.444 13.998 345.024 13.578C344.616 13.146 344.04 12.93 343.296 12.93H339.516V17.376H343.296ZM343.368 23.064C344.16 23.064 344.778 22.854 345.222 22.434C345.666 22.002 345.888 21.42 345.888 20.688C345.888 20.028 345.666 19.47 345.222 19.014C344.778 18.546 344.16 18.312 343.368 18.312H339.516V23.064H343.368ZM355.288 24.216C353.548 24.216 352.138 23.628 351.058 22.452C349.99 21.276 349.456 19.794 349.456 18.006C349.456 16.218 349.99 14.736 351.058 13.56C352.138 12.384 353.548 11.796 355.288 11.796C357.016 11.796 358.42 12.384 359.5 13.56C360.58 14.736 361.12 16.218 361.12 18.006C361.12 19.794 360.58 21.276 359.5 22.452C358.42 23.628 357.016 24.216 355.288 24.216ZM355.288 23.28C356.704 23.28 357.85 22.788 358.726 21.804C359.602 20.808 360.04 19.542 360.04 18.006C360.04 16.458 359.602 15.192 358.726 14.208C357.862 13.224 356.716 12.732 355.288 12.732C353.848 12.732 352.696 13.224 351.832 14.208C350.968 15.192 350.536 16.458 350.536 18.006C350.536 19.542 350.968 20.808 351.832 21.804C352.696 22.788 353.848 23.28 355.288 23.28ZM362.445 26.214V23.118C363.009 23.106 363.459 22.98 363.795 22.74C364.143 22.5 364.461 21.996 364.749 21.228C365.037 20.46 365.277 19.356 365.469 17.916L366.243 11.994H372.993V23.064H374.055V26.214H373.029V24H363.489V26.214H362.445ZM366.513 18.006C366.165 20.706 365.481 22.392 364.461 23.064H371.949V12.93H367.161L366.513 18.006ZM377.58 24H376.572V11.994H377.598V22.164L385.122 11.994H386.166V24H385.14V13.686L377.58 24ZM393.622 24H392.578V12.93H388.654V11.994H397.546V12.93H393.622V24ZM407.652 24H400.038V11.994H407.652V12.93H401.064V17.376H407.526V18.312H401.064V23.064H407.652V24ZM409.694 24.216V23.28C410.246 23.28 410.696 23.148 411.044 22.884C411.392 22.608 411.71 22.074 411.998 21.282C412.286 20.478 412.526 19.356 412.718 17.916L413.492 11.994H420.242V24H419.198V12.93H414.41L413.762 18.006C413.63 19.062 413.462 19.968 413.258 20.724C413.054 21.468 412.838 22.068 412.61 22.524C412.382 22.968 412.106 23.322 411.782 23.586C411.458 23.838 411.134 24.006 410.81 24.09C410.498 24.174 410.126 24.216 409.694 24.216ZM424.24 24H422.998L426.472 18.96C425.524 18.924 424.732 18.6 424.096 17.988C423.46 17.376 423.142 16.548 423.142 15.504C423.142 14.436 423.484 13.584 424.168 12.948C424.864 12.312 425.74 11.994 426.796 11.994H431.278V24H430.234V19.032H427.606L424.24 24ZM426.886 18.096H430.234V12.93H426.886C426.094 12.93 425.452 13.17 424.96 13.65C424.468 14.13 424.222 14.748 424.222 15.504C424.222 16.26 424.468 16.884 424.96 17.376C425.452 17.856 426.094 18.096 426.886 18.096Z" fill="black"/>
</svg>
