<svg width="26" height="26" viewBox="0 0 26 26" fill="none" xmlns="http://www.w3.org/2000/svg">
<path d="M16.2759 5.1311H9.3787C7.03644 5.1311 5.13086 7.03678 5.13086 9.37904V16.2763C5.13086 18.6186 7.03644 20.5242 9.3787 20.5242H16.2759C18.6184 20.5242 20.5239 18.6185 20.5239 16.2763V9.37904C20.524 7.03678 18.6184 5.1311 16.2759 5.1311ZM19.1583 16.2763C19.1583 17.8655 17.8653 19.1584 16.276 19.1584H9.3787C7.78952 19.1585 6.49661 17.8655 6.49661 16.2763V9.37904C6.49661 7.78985 7.78952 6.49685 9.3787 6.49685H16.2759C17.8652 6.49685 19.1582 7.78985 19.1582 9.37904V16.2763H19.1583Z" fill="black"/>
<path d="M12.8275 8.86133C10.6404 8.86133 8.86108 10.6406 8.86108 12.8277C8.86108 15.0148 10.6404 16.794 12.8275 16.794C15.0146 16.794 16.7939 15.0148 16.7939 12.8277C16.7939 10.6406 15.0146 8.86133 12.8275 8.86133ZM12.8275 15.4281C11.3935 15.4281 10.2268 14.2616 10.2268 12.8276C10.2268 11.3936 11.3935 10.227 12.8275 10.227C14.2615 10.227 15.4282 11.3936 15.4282 12.8276C15.4282 14.2616 14.2614 15.4281 12.8275 15.4281Z" fill="black"/>
<path d="M16.9607 7.70312C16.6975 7.70312 16.439 7.80965 16.2532 7.99631C16.0665 8.18205 15.9591 8.44063 15.9591 8.70467C15.9591 8.9679 16.0665 9.22639 16.2532 9.41304C16.4389 9.59878 16.6975 9.70622 16.9607 9.70622C17.2247 9.70622 17.4824 9.59878 17.669 9.41304C17.8557 9.22639 17.9622 8.96781 17.9622 8.70467C17.9622 8.44063 17.8557 8.18205 17.669 7.99631C17.4833 7.80965 17.2247 7.70312 16.9607 7.70312Z" fill="black"/>
</svg>
