<svg width="162" height="26" viewBox="0 0 162 26" fill="none" xmlns="http://www.w3.org/2000/svg">
<path d="M34.348 16H30.092V6.662H34.25C35.0527 6.662 35.6873 6.88133 36.154 7.32C36.63 7.75867 36.868 8.33267 36.868 9.042C36.868 9.602 36.7093 10.078 36.392 10.47C36.0747 10.8527 35.6873 11.0907 35.23 11.184C35.7247 11.2587 36.1493 11.52 36.504 11.968C36.868 12.416 37.05 12.92 37.05 13.48C37.05 14.236 36.8073 14.8473 36.322 15.314C35.846 15.7713 35.188 16 34.348 16ZM34.054 10.708C34.5673 10.708 34.964 10.568 35.244 10.288C35.524 10.008 35.664 9.64867 35.664 9.21C35.664 8.77133 35.5193 8.412 35.23 8.132C34.95 7.84267 34.558 7.698 34.054 7.698H31.254V10.708H34.054ZM34.11 14.964C34.6513 14.964 35.076 14.8193 35.384 14.53C35.692 14.2407 35.846 13.8487 35.846 13.354C35.846 12.8967 35.692 12.514 35.384 12.206C35.0853 11.898 34.6607 11.744 34.11 11.744H31.254V14.964H34.11ZM48.4141 16H47.0701L44.6341 12.962L43.5141 14.068V16H42.4641V9.238H43.5141V12.836L47.0701 9.238H48.4001L45.4041 12.304L48.4141 16ZM54.9905 15.146C54.3838 15.8273 53.5765 16.168 52.5685 16.168C51.5605 16.168 50.7485 15.8273 50.1325 15.146C49.5258 14.4647 49.2225 13.62 49.2225 12.612C49.2225 11.604 49.5258 10.764 50.1325 10.092C50.7485 9.41067 51.5605 9.07 52.5685 9.07C53.5765 9.07 54.3838 9.41067 54.9905 10.092C55.6065 10.764 55.9145 11.604 55.9145 12.612C55.9145 13.62 55.6065 14.4647 54.9905 15.146ZM50.9165 14.474C51.3271 14.978 51.8778 15.23 52.5685 15.23C53.2591 15.23 53.8051 14.978 54.2065 14.474C54.6078 13.9607 54.8085 13.34 54.8085 12.612C54.8085 11.884 54.6078 11.268 54.2065 10.764C53.8051 10.26 53.2591 10.008 52.5685 10.008C51.8778 10.008 51.3271 10.2647 50.9165 10.778C50.5151 11.282 50.3145 11.8933 50.3145 12.612C50.3145 13.34 50.5151 13.9607 50.9165 14.474ZM60.9582 16.168C60.0062 16.168 59.2455 15.7713 58.6762 14.978V18.576H57.6262V9.238H58.6762V10.246C58.9282 9.89133 59.2548 9.60667 59.6562 9.392C60.0575 9.17733 60.4915 9.07 60.9582 9.07C61.8542 9.07 62.5775 9.392 63.1282 10.036C63.6882 10.6707 63.9682 11.5293 63.9682 12.612C63.9682 13.6947 63.6882 14.558 63.1282 15.202C62.5775 15.846 61.8542 16.168 60.9582 16.168ZM60.6922 15.23C61.3548 15.23 61.8822 14.9873 62.2742 14.502C62.6662 14.0073 62.8622 13.3773 62.8622 12.612C62.8622 11.8467 62.6662 11.2213 62.2742 10.736C61.8822 10.2507 61.3548 10.008 60.6922 10.008C60.2908 10.008 59.8988 10.1153 59.5162 10.33C59.1428 10.5353 58.8628 10.7873 58.6762 11.086V14.138C58.8628 14.446 59.1428 14.7073 59.5162 14.922C59.8988 15.1273 60.2908 15.23 60.6922 15.23ZM68.0319 16.168C66.7346 16.168 65.7172 15.7993 64.9799 15.062L65.4979 14.39C66.1326 14.9967 66.9772 15.3 68.0319 15.3C68.6386 15.3 69.1192 15.1927 69.4739 14.978C69.8379 14.7633 70.0199 14.4787 70.0199 14.124C70.0199 13.3773 69.3106 13.004 67.8919 13.004H66.3799V12.15H67.8919C68.4799 12.15 68.9606 12.0567 69.3339 11.87C69.7072 11.674 69.8939 11.3893 69.8939 11.016C69.8939 10.6987 69.7072 10.442 69.3339 10.246C68.9606 10.0407 68.4892 9.938 67.9199 9.938C66.9772 9.938 66.2212 10.2273 65.6519 10.806L65.1059 10.162C65.8059 9.44333 66.7299 9.084 67.8779 9.084C68.8019 9.07467 69.5486 9.23333 70.1179 9.56C70.6966 9.87733 70.9859 10.3207 70.9859 10.89C70.9859 11.3567 70.7946 11.7347 70.4119 12.024C70.0386 12.3133 69.6232 12.486 69.1659 12.542C69.6419 12.5793 70.0852 12.738 70.4959 13.018C70.9159 13.298 71.1259 13.69 71.1259 14.194C71.1259 14.7727 70.8459 15.2487 70.2859 15.622C69.7352 15.986 68.9839 16.168 68.0319 16.168ZM73.8373 16H72.8293V9.238H73.8793V14.404L77.4213 9.238H78.4573V16H77.4073V10.736L73.8373 16ZM81.6039 16H80.5539V9.238H81.6039V12.052H85.1319V9.238H86.1819V16H85.1319V12.976H81.6039V16ZM91.3305 16.168C90.3225 16.168 89.4965 15.8413 88.8525 15.188C88.2085 14.5253 87.8865 13.6667 87.8865 12.612C87.8865 11.6227 88.2038 10.7873 88.8385 10.106C89.4732 9.41533 90.2665 9.07 91.2185 9.07C92.2172 9.07 93.0058 9.41533 93.5845 10.106C94.1725 10.7873 94.4665 11.6507 94.4665 12.696V12.962H88.9925C89.0392 13.6247 89.2818 14.18 89.7205 14.628C90.1592 15.076 90.7285 15.3 91.4285 15.3C92.2685 15.3 92.9638 15.0153 93.5145 14.446L94.0185 15.132C93.3278 15.8227 92.4318 16.168 91.3305 16.168ZM93.4305 12.192C93.4212 11.6133 93.2252 11.0953 92.8425 10.638C92.4598 10.1713 91.9138 9.938 91.2045 9.938C90.5325 9.938 90.0005 10.1667 89.6085 10.624C89.2258 11.0813 89.0205 11.604 88.9925 12.192H93.4305ZM101.947 18.296L101.317 18.786C100.001 16.9847 99.3426 14.922 99.3426 12.598C99.3426 10.2833 100.001 8.22067 101.317 6.41L101.947 6.886C101.452 7.866 101.083 8.79 100.841 9.658C100.607 10.526 100.491 11.506 100.491 12.598C100.491 13.69 100.607 14.6747 100.841 15.552C101.083 16.42 101.452 17.3347 101.947 18.296ZM108.247 16H107.085V13.634H102.647V12.668L106.651 6.662H108.247V12.612H109.563V13.634H108.247V16ZM107.085 12.612V7.74L103.809 12.612H107.085ZM116.947 16H115.897V10.162H113.937V9.238H118.921V10.162H116.947V16ZM125.674 15.146C125.067 15.8273 124.26 16.168 123.252 16.168C122.244 16.168 121.432 15.8273 120.816 15.146C120.209 14.4647 119.906 13.62 119.906 12.612C119.906 11.604 120.209 10.764 120.816 10.092C121.432 9.41067 122.244 9.07 123.252 9.07C124.26 9.07 125.067 9.41067 125.674 10.092C126.29 10.764 126.598 11.604 126.598 12.612C126.598 13.62 126.29 14.4647 125.674 15.146ZM121.6 14.474C122.011 14.978 122.561 15.23 123.252 15.23C123.943 15.23 124.489 14.978 124.89 14.474C125.291 13.9607 125.492 13.34 125.492 12.612C125.492 11.884 125.291 11.268 124.89 10.764C124.489 10.26 123.943 10.008 123.252 10.008C122.561 10.008 122.011 10.2647 121.6 10.778C121.199 11.282 120.998 11.8933 120.998 12.612C120.998 13.34 121.199 13.9607 121.6 14.474ZM132.104 16H128.31V9.238H132.034C132.622 9.238 133.084 9.39667 133.42 9.714C133.765 10.0313 133.938 10.4513 133.938 10.974C133.938 11.3567 133.83 11.688 133.616 11.968C133.41 12.2387 133.154 12.4207 132.846 12.514C133.191 12.598 133.48 12.7987 133.714 13.116C133.956 13.4333 134.078 13.7833 134.078 14.166C134.078 14.7167 133.9 15.16 133.546 15.496C133.2 15.832 132.72 16 132.104 16ZM131.894 15.076C132.23 15.076 132.496 14.9827 132.692 14.796C132.888 14.6093 132.986 14.3573 132.986 14.04C132.986 13.7507 132.888 13.5033 132.692 13.298C132.496 13.0927 132.23 12.99 131.894 12.99H129.36V15.076H131.894ZM131.852 12.066C132.169 12.066 132.416 11.982 132.594 11.814C132.771 11.6367 132.86 11.408 132.86 11.128C132.86 10.8293 132.771 10.596 132.594 10.428C132.416 10.2507 132.169 10.162 131.852 10.162H129.36V12.066H131.852ZM141.34 16H140.29V15.23C139.72 15.8553 138.974 16.168 138.05 16.168C137.424 16.168 136.874 15.9673 136.398 15.566C135.922 15.1647 135.684 14.6187 135.684 13.928C135.684 13.2187 135.917 12.6727 136.384 12.29C136.86 11.898 137.415 11.702 138.05 11.702C139.011 11.702 139.758 12.01 140.29 12.626V11.408C140.29 10.96 140.131 10.61 139.814 10.358C139.496 10.106 139.086 9.98 138.582 9.98C137.788 9.98 137.098 10.2927 136.51 10.918L136.02 10.19C136.738 9.44333 137.639 9.07 138.722 9.07C139.496 9.07 140.126 9.25667 140.612 9.63C141.097 10.0033 141.34 10.5773 141.34 11.352V16ZM138.428 15.412C139.268 15.412 139.888 15.132 140.29 14.572V13.298C139.888 12.738 139.268 12.458 138.428 12.458C137.942 12.458 137.541 12.598 137.224 12.878C136.916 13.1487 136.762 13.5033 136.762 13.942C136.762 14.3713 136.916 14.726 137.224 15.006C137.541 15.2767 137.942 15.412 138.428 15.412ZM146.777 16.168C145.825 16.168 145.064 15.7713 144.495 14.978V18.576H143.445V9.238H144.495V10.246C144.747 9.89133 145.073 9.60667 145.475 9.392C145.876 9.17733 146.31 9.07 146.777 9.07C147.673 9.07 148.396 9.392 148.947 10.036C149.507 10.6707 149.787 11.5293 149.787 12.612C149.787 13.6947 149.507 14.558 148.947 15.202C148.396 15.846 147.673 16.168 146.777 16.168ZM146.511 15.23C147.173 15.23 147.701 14.9873 148.093 14.502C148.485 14.0073 148.681 13.3773 148.681 12.612C148.681 11.8467 148.485 11.2213 148.093 10.736C147.701 10.2507 147.173 10.008 146.511 10.008C146.109 10.008 145.717 10.1153 145.335 10.33C144.961 10.5353 144.681 10.7873 144.495 11.086V14.138C144.681 14.446 144.961 14.7073 145.335 14.922C145.717 15.1273 146.109 15.23 146.511 15.23ZM156.734 16H155.684V15.23C155.115 15.8553 154.368 16.168 153.444 16.168C152.819 16.168 152.268 15.9673 151.792 15.566C151.316 15.1647 151.078 14.6187 151.078 13.928C151.078 13.2187 151.312 12.6727 151.778 12.29C152.254 11.898 152.81 11.702 153.444 11.702C154.406 11.702 155.152 12.01 155.684 12.626V11.408C155.684 10.96 155.526 10.61 155.208 10.358C154.891 10.106 154.48 9.98 153.976 9.98C153.183 9.98 152.492 10.2927 151.904 10.918L151.414 10.19C152.133 9.44333 153.034 9.07 154.116 9.07C154.891 9.07 155.521 9.25667 156.006 9.63C156.492 10.0033 156.734 10.5773 156.734 11.352V16ZM153.822 15.412C154.662 15.412 155.283 15.132 155.684 14.572V13.298C155.283 12.738 154.662 12.458 153.822 12.458C153.337 12.458 152.936 12.598 152.618 12.878C152.31 13.1487 152.156 13.5033 152.156 13.942C152.156 14.3713 152.31 14.726 152.618 15.006C152.936 15.2767 153.337 15.412 153.822 15.412ZM158.657 18.786L158.027 18.296C158.522 17.3347 158.89 16.42 159.133 15.552C159.376 14.6747 159.497 13.69 159.497 12.598C159.497 11.4967 159.376 10.512 159.133 9.644C158.89 8.776 158.522 7.85667 158.027 6.886L158.657 6.41C159.982 8.21133 160.645 10.274 160.645 12.598C160.645 14.9313 159.982 16.994 158.657 18.786Z" fill="black" fill-opacity="0.88"/>
<path d="M15 5.604H1V21.0134H15V5.604Z" stroke="black" stroke-miterlimit="10" stroke-linecap="round" stroke-linejoin="round"/>
<path d="M4.28864 7.48322V3.53691C4.28864 2.12752 5.32219 1 6.54367 1H9.45642C10.6779 1 11.7115 2.12752 11.7115 3.53691V7.48322" stroke="black" stroke-miterlimit="10" stroke-linecap="round" stroke-linejoin="round"/>
<circle cx="15.5" cy="19.5" r="6.5" fill="black"/>
<path d="M16.5319 23H15.7019V21.31H12.5319V20.62L15.3919 16.33H16.5319V20.58H17.4719V21.31H16.5319V23ZM15.7019 20.58V17.1L13.3619 20.58H15.7019Z" fill="white"/>
</svg>
