<svg width="45" height="17" viewBox="0 0 45 17" fill="none" xmlns="http://www.w3.org/2000/svg">
<path d="M35.2591 17H10.0311C4.76369 17 0.512817 13.2039 0.512817 8.5C0.512817 3.79612 4.76369 0 10.0311 0H35.2591C40.5265 0 44.7774 3.79612 44.7774 8.5C44.7774 13.2039 40.5265 17 35.2591 17Z" fill="#6DCBBA"/>
<path d="M7.869 6.61C7.74433 6.654 7.52066 6.71267 7.198 6.786C6.87533 6.852 6.62233 6.896 6.439 6.918L6.318 6.148C6.714 6.06733 7.12466 5.92433 7.55 5.719C7.98266 5.50633 8.33466 5.28633 8.606 5.059H8.617L9.486 5.18V11.23L10.74 11.351V12H6.549V11.351L7.869 11.241V6.61ZM14.4581 12.11C13.5194 12.11 12.8007 11.7983 12.3021 11.175C11.8107 10.5443 11.5651 9.69 11.5651 8.612C11.5651 7.84933 11.7081 7.204 11.9941 6.676C12.2801 6.14067 12.6577 5.741 13.1271 5.477C13.6037 5.20567 14.1317 5.07 14.7111 5.07C15.6571 5.07 16.3684 5.37067 16.8451 5.972C17.3217 6.566 17.5601 7.40933 17.5601 8.502C17.5601 9.25733 17.4207 9.91 17.1421 10.46C16.8707 11.0027 16.5004 11.4133 16.0311 11.692C15.5617 11.9707 15.0374 12.11 14.4581 12.11ZM14.5681 11.45C15.0301 11.45 15.3674 11.2153 15.5801 10.746C15.8001 10.2693 15.9101 9.56167 15.9101 8.623C15.9101 7.62567 15.8074 6.896 15.6021 6.434C15.4041 5.96467 15.0631 5.73 14.5791 5.73C13.6697 5.73 13.2151 6.65033 13.2151 8.491C13.2151 9.47367 13.3214 10.2143 13.5341 10.713C13.7541 11.2043 14.0987 11.45 14.5681 11.45ZM21.6876 12.11C20.7489 12.11 20.0302 11.7983 19.5316 11.175C19.0402 10.5443 18.7946 9.69 18.7946 8.612C18.7946 7.84933 18.9376 7.204 19.2236 6.676C19.5096 6.14067 19.8872 5.741 20.3566 5.477C20.8332 5.20567 21.3612 5.07 21.9406 5.07C22.8866 5.07 23.5979 5.37067 24.0746 5.972C24.5512 6.566 24.7896 7.40933 24.7896 8.502C24.7896 9.25733 24.6502 9.91 24.3716 10.46C24.1002 11.0027 23.7299 11.4133 23.2606 11.692C22.7912 11.9707 22.2669 12.11 21.6876 12.11ZM21.7976 11.45C22.2596 11.45 22.5969 11.2153 22.8096 10.746C23.0296 10.2693 23.1396 9.56167 23.1396 8.623C23.1396 7.62567 23.0369 6.896 22.8316 6.434C22.6336 5.96467 22.2926 5.73 21.8086 5.73C20.8992 5.73 20.4446 6.65033 20.4446 8.491C20.4446 9.47367 20.5509 10.2143 20.7636 10.713C20.9836 11.2043 21.3282 11.45 21.7976 11.45ZM32.4811 3.739H33.5041L29.9731 12H28.9611L32.4811 3.739ZM27.9931 8.535C27.5604 8.535 27.1901 8.43233 26.8821 8.227C26.5741 8.02167 26.3394 7.743 26.1781 7.391C26.0167 7.039 25.9361 6.65033 25.9361 6.225C25.9361 5.73367 26.0351 5.30833 26.2331 4.949C26.4311 4.58233 26.6987 4.30367 27.0361 4.113C27.3807 3.92233 27.7621 3.827 28.1801 3.827C28.8914 3.827 29.4121 4.03967 29.7421 4.465C30.0794 4.89033 30.2481 5.455 30.2481 6.159C30.2481 6.65033 30.1454 7.07567 29.9401 7.435C29.7421 7.79433 29.4707 8.06933 29.1261 8.26C28.7814 8.44333 28.4037 8.535 27.9931 8.535ZM28.0811 7.875C28.3891 7.875 28.6127 7.72833 28.7521 7.435C28.8987 7.13433 28.9721 6.72367 28.9721 6.203C28.9721 5.70433 28.9024 5.29733 28.7631 4.982C28.6311 4.65933 28.4147 4.498 28.1141 4.498C27.8134 4.498 27.5897 4.64467 27.4431 4.938C27.2964 5.23133 27.2231 5.63833 27.2231 6.159C27.2231 6.62833 27.2927 7.03167 27.4321 7.369C27.5714 7.70633 27.7877 7.875 28.0811 7.875ZM34.2961 11.846C33.8707 11.846 33.5004 11.7433 33.1851 11.538C32.8771 11.3253 32.6424 11.0467 32.4811 10.702C32.3197 10.35 32.2391 9.96133 32.2391 9.536C32.2391 9.04467 32.3381 8.61933 32.5361 8.26C32.7341 7.89333 33.0054 7.61467 33.3501 7.424C33.6947 7.23333 34.0761 7.138 34.4941 7.138C35.1981 7.138 35.7151 7.35067 36.0451 7.776C36.3824 8.20133 36.5511 8.766 36.5511 9.47C36.5511 9.96133 36.4484 10.3867 36.2431 10.746C36.0451 11.1053 35.7737 11.3803 35.4291 11.571C35.0844 11.7543 34.7067 11.846 34.2961 11.846ZM34.3841 11.175C34.6921 11.175 34.9157 11.0283 35.0551 10.735C35.2017 10.4417 35.2751 10.0347 35.2751 9.514C35.2751 9.02267 35.2054 8.61567 35.0661 8.293C34.9341 7.97033 34.7214 7.809 34.4281 7.809C34.1201 7.809 33.8927 7.95567 33.7461 8.249C33.5994 8.54233 33.5261 8.94933 33.5261 9.47C33.5261 9.93933 33.5957 10.3427 33.7351 10.68C33.8744 11.01 34.0907 11.175 34.3841 11.175Z" fill="black"/>
</svg>
