<svg width="1440" height="49" viewBox="0 0 1440 49" fill="none" xmlns="http://www.w3.org/2000/svg">
<rect y="-1" width="1440" height="50" fill="#D4E9F9"/>
<path d="M474.325 29.694C473.512 35.1353 470.531 38.552 466.601 38.6152C465.72 38.9948 464.772 39.2479 463.823 39.2479C460.029 39.2479 456.234 36.2109 453.321 30.9595C449.391 23.8731 451.627 13.0538 451.694 12.6109C451.762 12.2313 452.236 11.9782 452.643 12.168C452.914 12.2946 456.844 13.9396 460.842 16.7868C462.264 13.9396 464.094 11.219 465.856 9.13101C465.991 9.00447 466.194 8.87793 466.398 8.87793C466.601 8.87793 466.804 9.00447 466.94 9.13101C468.092 10.4597 469.718 12.7375 471.073 15.1417C475.613 12.3578 481.101 11.219 481.779 11.0924H481.846C481.914 11.0924 482.659 11.0291 482.659 11.6618C482.659 12.0415 482.524 21.279 477.984 26.4672C476.765 27.7959 475.545 28.8715 474.325 29.694Z" fill="#E9D4C6"/>
<path d="M474.325 29.694C473.512 35.1353 470.531 38.552 466.601 38.6152C465.72 38.9948 464.772 39.2479 463.823 39.2479C460.029 39.2479 456.234 36.2109 453.321 30.9595C449.391 23.8731 451.627 13.0538 451.694 12.6109C451.762 12.2313 452.236 11.9782 452.643 12.168C452.914 12.2946 456.844 13.9396 460.842 16.7868C462.264 13.9396 464.094 11.219 465.856 9.13101C465.991 9.00447 466.194 8.87793 466.398 8.87793C466.601 8.87793 466.804 9.00447 466.94 9.13101C468.092 10.4597 469.718 12.7375 471.073 15.1417C475.613 12.3578 481.101 11.219 481.779 11.0924H481.846C481.914 11.0924 482.659 11.0291 482.659 11.6618C482.659 12.0415 482.524 21.279 477.984 26.4672C476.765 27.7959 475.545 28.8715 474.325 29.694ZM476.9 25.6447C479.339 22.8608 480.423 18.6849 480.898 15.6479C479.543 18.3686 477.374 22.1648 474.529 25.2651C474.596 26.0876 474.596 27.0367 474.529 27.9225C475.342 27.2897 476.087 26.5305 476.9 25.6447ZM474.325 23.4935C477.239 19.9503 479.407 15.6479 480.491 13.3069C478.594 14.509 475.68 16.5337 472.97 19.0013C473.58 20.3932 474.054 22.0383 474.325 23.4935ZM468.905 30.39C469.718 24.5691 468.295 17.3562 466.465 11.6618V11.5986C464.162 18.7482 461.79 30.9595 466.465 36.9702C466.465 36.9069 468.295 34.8822 468.905 30.39ZM454.472 30.39C457.047 35.0721 460.3 37.7927 463.484 37.9825C461.587 37.0335 460.3 35.2619 459.486 33.3005C459.283 32.731 455.218 28.3653 452.507 16.7235C452.169 20.5198 452.169 26.2141 454.472 30.39ZM459.148 20.8994C456.979 18.1787 454.811 15.9643 453.388 14.5723C454.066 17.6726 455.557 23.8731 458.402 29.1246C457.996 25.8978 458.267 23.4935 459.148 20.8994ZM455.76 15.1417C456.912 16.3439 458.267 17.7991 459.622 19.4442C459.825 18.938 460.029 18.4318 460.232 17.9889C458.741 16.7868 457.115 15.8377 455.76 15.1417ZM459.622 26.0876C459.622 30.2002 460.706 35.8946 464.907 37.16C460.638 30.9595 462.536 20.0769 464.636 12.9905C462.197 16.5337 459.622 21.8485 459.622 26.0876ZM467.956 37.16C473.241 35.6415 474.258 26.4672 472.157 20.583C471.208 17.9889 469.786 15.3948 468.295 13.1171C470.328 20.2034 472.157 30.9595 467.956 37.16ZM472.428 17.7358C474.325 16.0275 476.358 14.509 478.052 13.3702C476.155 14.0029 473.783 14.9519 471.751 16.2173C471.751 16.3439 472.157 17.0399 472.428 17.7358Z" fill="black"/>
<path d="M501.259 40H476.031C470.764 40 466.513 36.2039 466.513 31.5C466.513 26.7961 470.764 23 476.031 23H501.259C506.526 23 510.777 26.7961 510.777 31.5C510.777 36.2039 506.526 40 501.259 40Z" fill="#6DCBBA"/>
<path d="M473.869 29.61C473.744 29.654 473.521 29.7127 473.198 29.786C472.875 29.852 472.622 29.896 472.439 29.918L472.318 29.148C472.714 29.0673 473.125 28.9243 473.55 28.719C473.983 28.5063 474.335 28.2863 474.606 28.059H474.617L475.486 28.18V34.23L476.74 34.351V35H472.549V34.351L473.869 34.241V29.61ZM480.458 35.11C479.519 35.11 478.801 34.7983 478.302 34.175C477.811 33.5443 477.565 32.69 477.565 31.612C477.565 30.8493 477.708 30.204 477.994 29.676C478.28 29.1407 478.658 28.741 479.127 28.477C479.604 28.2057 480.132 28.07 480.711 28.07C481.657 28.07 482.368 28.3707 482.845 28.972C483.322 29.566 483.56 30.4093 483.56 31.502C483.56 32.2573 483.421 32.91 483.142 33.46C482.871 34.0027 482.5 34.4133 482.031 34.692C481.562 34.9707 481.037 35.11 480.458 35.11ZM480.568 34.45C481.03 34.45 481.367 34.2153 481.58 33.746C481.8 33.2693 481.91 32.5617 481.91 31.623C481.91 30.6257 481.807 29.896 481.602 29.434C481.404 28.9647 481.063 28.73 480.579 28.73C479.67 28.73 479.215 29.6503 479.215 31.491C479.215 32.4737 479.321 33.2143 479.534 33.713C479.754 34.2043 480.099 34.45 480.568 34.45ZM487.688 35.11C486.749 35.11 486.03 34.7983 485.532 34.175C485.04 33.5443 484.795 32.69 484.795 31.612C484.795 30.8493 484.938 30.204 485.224 29.676C485.51 29.1407 485.887 28.741 486.357 28.477C486.833 28.2057 487.361 28.07 487.941 28.07C488.887 28.07 489.598 28.3707 490.075 28.972C490.551 29.566 490.79 30.4093 490.79 31.502C490.79 32.2573 490.65 32.91 490.372 33.46C490.1 34.0027 489.73 34.4133 489.261 34.692C488.791 34.9707 488.267 35.11 487.688 35.11ZM487.798 34.45C488.26 34.45 488.597 34.2153 488.81 33.746C489.03 33.2693 489.14 32.5617 489.14 31.623C489.14 30.6257 489.037 29.896 488.832 29.434C488.634 28.9647 488.293 28.73 487.809 28.73C486.899 28.73 486.445 29.6503 486.445 31.491C486.445 32.4737 486.551 33.2143 486.764 33.713C486.984 34.2043 487.328 34.45 487.798 34.45ZM498.481 26.739H499.504L495.973 35H494.961L498.481 26.739ZM493.993 31.535C493.56 31.535 493.19 31.4323 492.882 31.227C492.574 31.0217 492.339 30.743 492.178 30.391C492.017 30.039 491.936 29.6503 491.936 29.225C491.936 28.7337 492.035 28.3083 492.233 27.949C492.431 27.5823 492.699 27.3037 493.036 27.113C493.381 26.9223 493.762 26.827 494.18 26.827C494.891 26.827 495.412 27.0397 495.742 27.465C496.079 27.8903 496.248 28.455 496.248 29.159C496.248 29.6503 496.145 30.0757 495.94 30.435C495.742 30.7943 495.471 31.0693 495.126 31.26C494.781 31.4433 494.404 31.535 493.993 31.535ZM494.081 30.875C494.389 30.875 494.613 30.7283 494.752 30.435C494.899 30.1343 494.972 29.7237 494.972 29.203C494.972 28.7043 494.902 28.2973 494.763 27.982C494.631 27.6593 494.415 27.498 494.114 27.498C493.813 27.498 493.59 27.6447 493.443 27.938C493.296 28.2313 493.223 28.6383 493.223 29.159C493.223 29.6283 493.293 30.0317 493.432 30.369C493.571 30.7063 493.788 30.875 494.081 30.875ZM500.296 34.846C499.871 34.846 499.5 34.7433 499.185 34.538C498.877 34.3253 498.642 34.0467 498.481 33.702C498.32 33.35 498.239 32.9613 498.239 32.536C498.239 32.0447 498.338 31.6193 498.536 31.26C498.734 30.8933 499.005 30.6147 499.35 30.424C499.695 30.2333 500.076 30.138 500.494 30.138C501.198 30.138 501.715 30.3507 502.045 30.776C502.382 31.2013 502.551 31.766 502.551 32.47C502.551 32.9613 502.448 33.3867 502.243 33.746C502.045 34.1053 501.774 34.3803 501.429 34.571C501.084 34.7543 500.707 34.846 500.296 34.846ZM500.384 34.175C500.692 34.175 500.916 34.0283 501.055 33.735C501.202 33.4417 501.275 33.0347 501.275 32.514C501.275 32.0227 501.205 31.6157 501.066 31.293C500.934 30.9703 500.721 30.809 500.428 30.809C500.12 30.809 499.893 30.9557 499.746 31.249C499.599 31.5423 499.526 31.9493 499.526 32.47C499.526 32.9393 499.596 33.3427 499.735 33.68C499.874 34.01 500.091 34.175 500.384 34.175Z" fill="black"/>
<path d="M534.831 31H533.787V20.398L529.413 31H529.017L524.625 20.398V31H523.599V18.994H525.129L529.215 28.894L533.283 18.994H534.831V31ZM539.187 31H538.179V18.994H539.205V29.164L546.729 18.994H547.773V31H546.747V20.686L539.187 31ZM560.809 31H559.765V25.294H552.151V31H551.125V18.994H552.151V24.358H559.765V18.994H560.809V31ZM563.278 33.214V30.118C563.842 30.106 564.292 29.98 564.628 29.74C564.976 29.5 565.294 28.996 565.582 28.228C565.87 27.46 566.11 26.356 566.302 24.916L567.076 18.994H573.826V30.064H574.888V33.214H573.862V31H564.322V33.214H563.278ZM567.346 25.006C566.998 27.706 566.314 29.392 565.294 30.064H572.782V19.93H567.994L567.346 25.006ZM587.286 31H586.098L584.91 28.048H578.556L577.368 31H576.18L581.094 18.994H582.372L587.286 31ZM584.568 27.112L581.724 20.092L578.898 27.112H584.568ZM588.554 31.216V30.28C589.106 30.28 589.556 30.148 589.904 29.884C590.252 29.608 590.57 29.074 590.858 28.282C591.146 27.478 591.386 26.356 591.578 24.916L592.352 18.994H599.102V31H598.058V19.93H593.27L592.622 25.006C592.49 26.062 592.322 26.968 592.118 27.724C591.914 28.468 591.698 29.068 591.47 29.524C591.242 29.968 590.966 30.322 590.642 30.586C590.318 30.838 589.994 31.006 589.67 31.09C589.358 31.174 588.986 31.216 588.554 31.216ZM602.434 18.994H603.46V23.98H606.934C608.038 23.98 608.914 24.322 609.562 25.006C610.222 25.678 610.552 26.506 610.552 27.49C610.552 28.474 610.228 29.308 609.58 29.992C608.932 30.664 608.05 31 606.934 31H602.434V18.994ZM606.826 24.916H603.46V30.064H606.826C607.618 30.064 608.254 29.824 608.734 29.344C609.226 28.864 609.472 28.246 609.472 27.49C609.472 26.734 609.226 26.116 608.734 25.636C608.254 25.156 607.618 24.916 606.826 24.916ZM622.762 31H621.718V25.294H614.104V31H613.078V18.994H614.104V24.358H621.718V18.994H622.762V31ZM635.976 31H634.788L633.6 28.048H627.246L626.058 31H624.87L629.784 18.994H631.062L635.976 31ZM633.258 27.112L630.414 20.092L627.588 27.112H633.258ZM638.774 31H637.532L641.006 25.96C640.058 25.924 639.266 25.6 638.63 24.988C637.994 24.376 637.676 23.548 637.676 22.504C637.676 21.436 638.018 20.584 638.702 19.948C639.398 19.312 640.274 18.994 641.33 18.994H645.812V31H644.768V26.032H642.14L638.774 31ZM641.42 25.096H644.768V19.93H641.42C640.628 19.93 639.986 20.17 639.494 20.65C639.002 21.13 638.756 21.748 638.756 22.504C638.756 23.26 639.002 23.884 639.494 24.376C639.986 24.856 640.628 25.096 641.42 25.096ZM665.406 31H664.362V20.398L659.988 31H659.592L655.2 20.398V31H654.174V18.994H655.704L659.79 28.894L663.858 18.994H665.406V31ZM669.799 31.216C668.803 31.216 668.047 30.862 667.531 30.154L668.089 29.38C668.569 29.98 669.127 30.28 669.763 30.28C670.207 30.28 670.567 30.154 670.843 29.902C671.119 29.65 671.443 29.176 671.815 28.48L672.229 27.706L667.531 18.994H668.719L672.823 26.752L676.927 18.994H678.115L672.715 28.966C672.295 29.746 671.875 30.316 671.455 30.676C671.035 31.036 670.483 31.216 669.799 31.216ZM688.864 31H687.55L682.6 25.348L681.268 26.806V31H680.242V18.994H681.268V25.564L687.064 18.994H688.378L683.266 24.718L688.864 31ZM701.03 31H699.842L698.654 28.048H692.3L691.112 31H689.924L694.838 18.994H696.116L701.03 31ZM698.312 27.112L695.468 20.092L692.642 27.112H698.312ZM709.189 31H708.181V18.994H709.207V29.164L716.731 18.994H717.775V31H716.749V20.686L709.189 31ZM735.829 31H734.785V25.294H727.171V31H726.145V18.994H727.171V24.358H734.785V18.994H735.829V31ZM749.043 31H747.855L746.667 28.048H740.313L739.125 31H737.937L742.851 18.994H744.129L749.043 31ZM746.325 27.112L743.481 20.092L740.655 27.112H746.325ZM754.032 31H752.988V19.93H749.064V18.994H757.956V19.93H754.032V31ZM761.492 31.216C760.496 31.216 759.74 30.862 759.224 30.154L759.782 29.38C760.262 29.98 760.82 30.28 761.456 30.28C761.9 30.28 762.26 30.154 762.536 29.902C762.812 29.65 763.136 29.176 763.508 28.48L763.922 27.706L759.224 18.994H760.412L764.516 26.752L768.62 18.994H769.808L764.408 28.966C763.988 29.746 763.568 30.316 763.148 30.676C762.728 31.036 762.176 31.216 761.492 31.216ZM772.961 31H771.935V18.994H776.435C777.551 18.994 778.433 19.336 779.081 20.02C779.729 20.692 780.053 21.52 780.053 22.504C780.053 23.488 779.723 24.322 779.063 25.006C778.415 25.678 777.539 26.014 776.435 26.014H772.961V31ZM776.327 25.078C777.119 25.078 777.755 24.838 778.235 24.358C778.727 23.878 778.973 23.26 778.973 22.504C778.973 21.748 778.727 21.13 778.235 20.65C777.755 20.17 777.119 19.93 776.327 19.93H772.961V25.078H776.327ZM791.036 31H789.848L788.66 28.048H782.306L781.118 31H779.93L784.844 18.994H786.122L791.036 31ZM788.318 27.112L785.474 20.092L782.648 27.112H788.318ZM792.304 31.216V30.28C792.856 30.28 793.306 30.148 793.654 29.884C794.002 29.608 794.32 29.074 794.608 28.282C794.896 27.478 795.136 26.356 795.328 24.916L796.102 18.994H802.852V31H801.808V19.93H797.02L796.372 25.006C796.24 26.062 796.072 26.968 795.868 27.724C795.664 28.468 795.448 29.068 795.22 29.524C794.992 29.968 794.716 30.322 794.392 30.586C794.068 30.838 793.744 31.006 793.42 31.09C793.108 31.174 792.736 31.216 792.304 31.216ZM806.185 18.994H807.211V23.98H810.685C811.789 23.98 812.665 24.322 813.313 25.006C813.973 25.678 814.303 26.506 814.303 27.49C814.303 28.474 813.979 29.308 813.331 29.992C812.683 30.664 811.801 31 810.685 31H806.185V18.994ZM810.577 24.916H807.211V30.064H810.577C811.369 30.064 812.005 29.824 812.485 29.344C812.977 28.864 813.223 28.246 813.223 27.49C813.223 26.734 812.977 26.116 812.485 25.636C812.005 25.156 811.369 24.916 810.577 24.916ZM826.512 31H825.468V25.294H817.854V31H816.828V18.994H817.854V24.358H825.468V18.994H826.512V31ZM829.844 18.994H830.87V23.98H834.344C835.448 23.98 836.324 24.322 836.972 25.006C837.632 25.678 837.962 26.506 837.962 27.49C837.962 28.474 837.638 29.308 836.99 29.992C836.342 30.664 835.46 31 834.344 31H829.844V18.994ZM834.236 24.916H830.87V30.064H834.236C835.028 30.064 835.664 29.824 836.144 29.344C836.636 28.864 836.882 28.246 836.882 27.49C836.882 26.734 836.636 26.116 836.144 25.636C835.664 25.156 835.028 24.916 834.236 24.916ZM840.428 31H839.402V18.994H840.428V31ZM851.388 31H843.774V18.994H851.388V19.93H844.8V24.376H851.262V25.312H844.8V30.064H851.388V31ZM860.321 31H859.313V18.994H860.339V29.164L867.863 18.994H868.907V31H867.881V20.686L860.321 31ZM881.943 31H880.899V25.294H873.285V31H872.259V18.994H873.285V24.358H880.899V18.994H881.943V31ZM886.301 31H885.275V18.994H892.889V19.93H886.301V31ZM896.417 31H895.391V18.994H899.891C901.007 18.994 901.889 19.336 902.537 20.02C903.185 20.692 903.509 21.52 903.509 22.504C903.509 23.488 903.179 24.322 902.519 25.006C901.871 25.678 900.995 26.014 899.891 26.014H896.417V31ZM899.783 25.078C900.575 25.078 901.211 24.838 901.691 24.358C902.183 23.878 902.429 23.26 902.429 22.504C902.429 21.748 902.183 21.13 901.691 20.65C901.211 20.17 900.575 19.93 899.783 19.93H896.417V25.078H899.783ZM913.648 31H906.034V18.994H913.648V19.93H907.06V24.376H913.522V25.312H907.06V30.064H913.648V31ZM915.69 33.214V30.118C916.254 30.106 916.704 29.98 917.04 29.74C917.388 29.5 917.706 28.996 917.994 28.228C918.282 27.46 918.522 26.356 918.714 24.916L919.488 18.994H926.238V30.064H927.3V33.214H926.274V31H916.734V33.214H915.69ZM919.758 25.006C919.41 27.706 918.726 29.392 917.706 30.064H925.194V19.93H920.406L919.758 25.006ZM930.825 31H929.817V18.994H930.843V29.164L938.367 18.994H939.411V31H938.385V20.686L930.825 31ZM950.376 31H942.762V18.994H950.376V19.93H943.788V24.376H950.25V25.312H943.788V30.064H950.376V31ZM962.967 31H961.923V25.294H954.309V31H953.283V18.994H954.309V24.358H961.923V18.994H962.967V31ZM970.403 31H969.359V19.93H965.435V18.994H974.327V19.93H970.403V31ZM976.819 18.994H977.845V23.98H981.319C982.423 23.98 983.299 24.322 983.947 25.006C984.607 25.678 984.937 26.506 984.937 27.49C984.937 28.474 984.613 29.308 983.965 29.992C983.317 30.664 982.435 31 981.319 31H976.819V18.994ZM981.211 24.916H977.845V30.064H981.211C982.003 30.064 982.639 29.824 983.119 29.344C983.611 28.864 983.857 28.246 983.857 27.49C983.857 26.734 983.611 26.116 983.119 25.636C982.639 25.156 982.003 24.916 981.211 24.916ZM987.403 31H986.377V18.994H987.403V31Z" fill="black"/>
</svg>
