<svg width="17" height="11" viewBox="0 0 17 11" fill="none" xmlns="http://www.w3.org/2000/svg">
<path fill-rule="evenodd" clip-rule="evenodd" d="M8.34309 10.4535H9.34989C9.34989 10.4535 9.65401 10.4202 9.80928 10.2528C9.95219 10.0991 9.94762 9.81054 9.94762 9.81054C9.94762 9.81054 9.92795 8.4596 10.5549 8.26066C11.173 8.0647 11.9667 9.56633 12.808 10.1437C13.4441 10.5807 13.9275 10.4849 13.9275 10.4849L16.1769 10.4535C16.1769 10.4535 17.3536 10.3811 16.7956 9.45589C16.7499 9.3802 16.4707 8.7715 15.1232 7.52071C13.7128 6.21161 13.9017 6.42335 15.6006 4.1589C16.6353 2.77983 17.049 1.93789 16.9198 1.57728C16.7966 1.23383 16.0356 1.32461 16.0356 1.32461L13.5029 1.34039C13.5029 1.34039 13.3151 1.31478 13.1759 1.39801C13.0398 1.47964 12.9523 1.66989 12.9523 1.66989C12.9523 1.66989 12.5514 2.73707 12.0168 3.64463C10.889 5.55969 10.4381 5.66076 10.2538 5.54185C9.82506 5.26471 9.93207 4.42849 9.93207 3.83442C9.93207 1.97859 10.2136 1.20479 9.38396 1.00448C9.10865 0.937942 8.90606 0.894038 8.202 0.88695C7.29832 0.877574 6.53344 0.889693 6.10035 1.10189C5.81224 1.24298 5.58998 1.55739 5.72535 1.57546C5.89273 1.59786 6.27185 1.67767 6.47285 1.95138C6.73238 2.30443 6.72323 3.09744 6.72323 3.09744C6.72323 3.09744 6.87232 5.28209 6.37498 5.55351C6.03359 5.73965 5.56528 5.35961 4.55985 3.62222C4.04467 2.73226 3.65571 1.74855 3.65571 1.74855C3.65571 1.74855 3.58071 1.56471 3.44694 1.46638C3.28459 1.34725 3.05776 1.30929 3.05776 1.30929L0.651072 1.32507C0.651072 1.32507 0.289784 1.33513 0.157159 1.49222C0.0391687 1.63194 0.147784 1.92097 0.147784 1.92097C0.147784 1.92097 2.03197 6.32914 4.1654 8.55061C6.12162 10.5873 8.34309 10.4535 8.34309 10.4535Z" fill="black"/>
</svg>
