<svg width="25" height="20" viewBox="0 0 25 20" fill="none" xmlns="http://www.w3.org/2000/svg">
<path d="M22.547 6.0506C21.8747 2.53976 18.8121 0 15.1518 0H9.32531C5.73976 0 2.67711 2.53976 1.93012 6.0506C1.03374 6.3494 0.36145 7.17108 0.36145 8.14217C0.36145 8.73976 0.585547 9.26265 0.959041 9.63614C0.585547 10.0096 0.36145 10.5325 0.36145 11.1301C0.36145 12.1012 1.03374 12.9976 1.93012 13.2217C2.60241 16.7325 5.66506 19.2723 9.32531 19.2723H15.1518C18.7374 19.2723 21.8 16.7325 22.547 13.2217C23.4434 12.9229 24.1157 12.1012 24.1157 11.1301C24.1157 10.5325 23.8916 10.0096 23.5181 9.63614C23.8916 9.26265 24.1157 8.73976 24.1157 8.14217C24.1904 7.17108 23.5181 6.3494 22.547 6.0506ZM9.32531 1.49398H15.1518C17.9157 1.49398 20.2313 3.36145 20.9783 5.9759H20.6795L20.5301 5.82651C20.2313 5.37831 19.7084 5.22892 19.1855 5.22892H18.7374C18.2145 5.22892 17.6916 5.45301 17.3181 5.82651C17.2434 5.90121 17.094 5.9759 16.9446 5.9759H16.4964C16.347 5.9759 16.1976 5.90121 16.1229 5.82651C15.7494 5.37831 15.2265 5.22892 14.7036 5.22892H14.2554C13.7325 5.22892 13.2096 5.45301 12.8362 5.82651C12.7615 5.90121 12.6121 5.9759 12.4627 5.9759H12.0145C11.8651 5.9759 11.7157 5.90121 11.641 5.82651C11.3422 5.37831 10.8193 5.22892 10.2964 5.22892H9.8482C9.32531 5.22892 8.80241 5.45301 8.42892 5.82651C8.35422 5.90121 8.20482 5.9759 8.05543 5.9759H7.60723C7.45784 5.9759 7.30844 5.90121 7.23374 5.82651C6.86025 5.37831 6.33735 5.22892 5.81446 5.22892H5.36627C4.84338 5.22892 4.32049 5.45301 3.94699 5.82651L3.7976 5.90121H3.5735C4.24579 3.36145 6.63615 1.49398 9.32531 1.49398ZM2.60241 7.39518H4.39518L4.99278 6.79759C5.14217 6.72289 5.21687 6.64819 5.36627 6.64819H5.81446C5.96386 6.64819 6.11326 6.72289 6.18796 6.79759C6.56145 7.17108 7.08434 7.39518 7.60723 7.39518H8.05543C8.57832 7.39518 9.10121 7.17108 9.4747 6.79759C9.5494 6.72289 9.6988 6.64819 9.8482 6.64819H10.2964C10.4458 6.64819 10.5952 6.72289 10.6699 6.79759C11.0434 7.17108 11.5663 7.39518 12.0892 7.39518H12.5374C13.0602 7.39518 13.5831 7.17108 13.9566 6.79759C14.0313 6.72289 14.1807 6.64819 14.2554 6.64819H14.7036C14.853 6.64819 15.0024 6.72289 15.0771 6.79759C15.4506 7.17108 15.9735 7.39518 16.4964 7.39518H16.9446C17.4675 7.39518 17.9904 7.17108 18.3639 6.79759C18.4386 6.72289 18.588 6.64819 18.7374 6.64819H19.1855C19.3349 6.64819 19.4843 6.72289 19.559 6.79759L20.1566 7.39518H21.9494C22.3229 7.39518 22.6964 7.69398 22.6964 8.14217C22.6964 8.59036 22.3976 8.88916 21.9494 8.88916H2.60241C2.22892 8.88916 1.85543 8.59036 1.85543 8.14217C1.85543 7.69398 2.22892 7.39518 2.60241 7.39518ZM15.2265 17.7783H9.40001C6.63615 17.7783 4.32049 15.9108 3.5735 13.2964H21.053C20.306 15.9855 17.9904 17.7783 15.2265 17.7783ZM21.9494 11.8771H2.60241C2.22892 11.8771 1.85543 11.5783 1.85543 11.1301C1.85543 10.6819 2.15422 10.3831 2.60241 10.3831H21.8747C22.2482 10.3831 22.6217 10.6819 22.6217 11.1301C22.6217 11.5783 22.3229 11.8771 21.9494 11.8771Z" fill="black"/>
</svg>
